<svg width="71" height="32" viewBox="0 0 71 32" fill="none" xmlns="http://www.w3.org/2000/svg">
<path d="M53.3428 17.8781H50.7609V14.4914H53.2581C54.1055 14.4914 54.7477 14.6274 55.1662 14.8958C55.5741 15.1573 55.7724 15.5706 55.7724 16.1593C55.7724 17.3158 54.9777 17.8781 53.3428 17.8781ZM50.7609 9.48192H52.6827C53.5751 9.48192 54.2447 9.58208 54.6728 9.77976C55.0768 9.96656 55.2732 10.34 55.2732 10.9214C55.2732 11.1917 55.2076 11.439 55.0757 11.6607C54.908 11.9698 54.6731 12.1733 54.3578 12.2828C54.0301 12.3964 53.5548 12.4541 52.9451 12.4541H50.7609V9.48192ZM56.2939 13.2962C57.4066 12.6976 57.9704 11.7888 57.9704 10.5914C57.9704 10.218 57.9081 9.85864 57.7856 9.52312C57.6631 9.1876 57.4826 8.87679 57.2489 8.59927C57.0165 8.32288 56.7446 8.09095 56.4415 7.91C56.0862 7.69487 55.6795 7.54719 55.2325 7.47151C54.794 7.39751 54.2692 7.35999 53.6727 7.35999H49.6533C49.0877 7.35999 48.6682 7.49271 48.4069 7.75399C48.1453 8.01559 48.0127 8.44055 48.0127 9.01751V16.7393V18.3424V20H49.6533H50.3711H53.4444C54.1012 20 54.6843 19.9668 55.1773 19.9015C55.6757 19.836 56.1243 19.7207 56.5125 19.5585C57.1348 19.2852 57.6363 18.856 58.0026 18.2831C58.3686 17.7109 58.5544 17.059 58.5544 16.3455C58.5544 14.8796 57.7944 13.855 56.2939 13.2962Z" fill="white"/>
<path d="M39.9318 10.2985L39.947 10.3402L39.9623 10.2985L41.626 14.9368H39.947H38.2679L39.9318 10.2985ZM37.5284 17.0501H39.947H42.3656L43.4487 19.9792H46.2939L45.5036 17.9811C45.4647 17.8787 45.4222 17.7696 45.373 17.6477L41.8885 8.79548C41.7596 8.46612 41.6196 8.1878 41.4722 7.96812C41.3195 7.74052 41.1163 7.5538 40.8682 7.41324C40.6182 7.2718 40.3083 7.20004 39.947 7.19996C39.5856 7.20004 39.2759 7.2718 39.0259 7.41324C38.7777 7.5538 38.5745 7.74052 38.4219 7.96812C38.2743 8.1878 38.1343 8.46612 38.0055 8.79548L34.5211 17.6477C34.4719 17.7696 34.4294 17.8787 34.3903 17.9811L33.6001 19.9792H36.4454L37.5284 17.0501Z" fill="white"/>
<path d="M65.5508 17.8781H62.9689V14.4914H65.466C66.3135 14.4914 66.9556 14.6274 67.3742 14.8958C67.7821 15.1573 67.9803 15.5706 67.9803 16.1593C67.9803 17.3158 67.1857 17.8781 65.5508 17.8781ZM62.9689 9.48192H64.8906C65.783 9.48192 66.4526 9.58208 66.8808 9.77976C67.2847 9.96656 67.4811 10.34 67.4811 10.9214C67.4811 11.1917 67.4155 11.439 67.2837 11.6607C67.116 11.9698 66.8811 12.1733 66.5657 12.2828C66.2381 12.3964 65.7627 12.4541 65.1531 12.4541H62.9689V9.48192ZM68.5019 13.2962C69.6145 12.6976 70.1783 11.7888 70.1783 10.5914C70.1783 10.218 70.1161 9.85864 69.9936 9.52312C69.871 9.1876 69.6905 8.87679 69.4569 8.59927C69.2244 8.32288 68.9525 8.09095 68.6494 7.91C68.2941 7.69487 67.8875 7.54719 67.4404 7.47151C67.0019 7.39751 66.4772 7.35999 65.8806 7.35999H61.8612C61.2957 7.35999 60.8762 7.49271 60.6149 7.75399C60.3533 8.01559 60.2207 8.44055 60.2207 9.01751V16.7393V18.3424V20H61.8612H62.5791H65.6524C66.3092 20 66.8923 19.9668 67.3853 19.9015C67.8837 19.836 68.3323 19.7207 68.7204 19.5585C69.3427 19.2852 69.8443 18.856 70.2106 18.2831C70.5765 17.7109 70.7623 17.059 70.7623 16.3455C70.7623 14.8796 70.0023 13.855 68.5019 13.2962Z" fill="white"/>
<path d="M6.00726 16C4.2119 13.0968 3.25094 9.66168 3.89678 6.18136C4.1171 4.99424 5.06966 4.07199 6.26238 3.88415C7.3295 3.71599 8.10086 3.63175 9.61238 3.75735C9.06766 4.66167 8.74542 5.5636 8.40654 6.44016C7.65158 6.41272 6.88246 6.56376 6.63886 6.63888C6.02542 8.90632 6.81702 12.7883 9.20854 16H6.00726Z" fill="white"/>
<path d="M8.93408 8.93407C9.71744 5.61167 11.467 2.50311 14.3846 0.498869C15.3798 -0.184812 16.7055 -0.163291 17.6818 0.547189C18.5552 1.18287 19.1602 1.66879 20.1402 2.82639C19.1156 3.08063 18.2499 3.49055 17.3905 3.87079C16.876 3.31751 16.2254 2.88047 16 2.76135C13.963 3.93087 11.7777 7.23575 11.1978 11.1978L8.93408 8.93407Z" fill="white"/>
<path d="M15.9995 6.00743C18.9028 4.21207 22.3378 3.25103 25.8182 3.89687C27.0054 4.11719 27.9275 5.06975 28.1154 6.26247C28.2835 7.32959 28.3678 8.10095 28.2422 9.61255C27.3379 9.06783 26.436 8.74559 25.5594 8.40663C25.5868 7.65175 25.4358 6.88263 25.3606 6.63903C23.0932 6.02559 19.2111 6.81719 15.9995 9.20871V6.00743Z" fill="white"/>
<path d="M23.0659 8.93397C26.3883 9.71733 29.4968 11.4668 31.5011 14.3845C32.1848 15.3797 32.1633 16.7053 31.4528 17.6817C30.8171 18.5551 30.3312 19.1601 29.1736 20.1401C28.9193 19.1155 28.5094 18.2498 28.1292 17.3904C28.6825 16.8759 29.1194 16.2253 29.2386 15.9999C28.069 13.9628 24.7642 11.7776 20.8022 11.1977L23.0659 8.93397Z" fill="white"/>
<path d="M25.9928 15.9997C27.7882 18.9029 28.7491 22.3381 28.1033 25.8184C27.883 27.0056 26.9304 27.9277 25.7377 28.1157C24.6706 28.2837 23.8992 28.3681 22.3877 28.2424C22.9323 27.3381 23.2546 26.4362 23.5935 25.5596C24.3485 25.587 25.1176 25.436 25.3612 25.3609C25.9746 23.0934 25.1831 19.2114 22.7915 15.9997H25.9928Z" fill="white"/>
<path d="M23.066 23.0658C22.2826 26.3882 20.5331 29.4967 17.6155 31.501C16.6203 32.1847 15.2946 32.1632 14.3183 31.4527C13.4449 30.817 12.8399 30.3311 11.8599 29.1735C12.8845 28.9192 13.7501 28.5094 14.6095 28.1291C15.1241 28.6823 15.7747 29.1194 16.0001 29.2386C18.0371 28.069 20.2224 24.7642 20.8023 20.8021L23.066 23.0658Z" fill="white"/>
<path d="M15.9998 25.9927C13.0965 27.7881 9.66148 28.749 6.18116 28.1033C4.99396 27.8829 4.0718 26.9304 3.88388 25.7377C3.7158 24.6705 3.63148 23.8991 3.75708 22.3876C4.66148 22.9323 5.56332 23.2545 6.43988 23.5934C6.41252 24.3484 6.56356 25.1175 6.63868 25.3611C8.90612 25.9745 12.7881 25.1829 15.9998 22.7913V25.9927Z" fill="white"/>
<path d="M8.93417 23.0659C5.61177 22.2826 2.50329 20.5331 0.498969 17.6154C-0.184712 16.6202 -0.163191 15.2945 0.547369 14.3182C1.18297 13.4448 1.66889 12.8398 2.82657 11.8598C3.08081 12.8844 3.49065 13.7501 3.87089 14.6095C3.31761 15.124 2.88065 15.7746 2.76145 16C3.93097 18.0371 7.23585 20.2223 11.1979 20.8022L8.93417 23.0659Z" fill="white"/>
<path d="M34.2584 23.646H34.8396L34.5477 22.9708L34.2584 23.646ZM33.6724 24.3164L34.4151 22.6162H34.69L35.4328 24.3164H35.1192L34.948 23.9089H34.1499L33.9762 24.3164H33.6724Z" fill="white"/>
<path d="M35.6304 24.3164V24.1162L36.3659 23.2818H35.6569V23.0431H36.7373V23.2433L36.0018 24.0777H36.7373V24.3164H35.6304Z" fill="white"/>
<path d="M37.8877 23.769H37.2317C37.2413 23.8672 37.2743 23.9475 37.3305 24.0102C37.3868 24.0729 37.4616 24.1042 37.5549 24.1042C37.6433 24.1042 37.7172 24.0737 37.7767 24.0126C37.8361 23.9515 37.8732 23.8704 37.8877 23.769ZM37.5235 23.0142C37.71 23.0142 37.8656 23.0757 37.9901 23.1987C38.1147 23.3217 38.177 23.4797 38.177 23.6726V23.6773C38.177 23.864 38.1184 24.0214 38.001 24.1501C37.8836 24.2787 37.7341 24.343 37.5525 24.343C37.3595 24.343 37.2096 24.2775 37.1026 24.1465C36.9957 24.0154 36.9424 23.8527 36.9424 23.6581C36.9424 23.6421 36.9439 23.6147 36.9471 23.5761H37.8828C37.8667 23.4733 37.8257 23.3937 37.7598 23.3373C37.6939 23.2811 37.6135 23.253 37.5187 23.253C37.3933 23.253 37.2775 23.3037 37.1714 23.4049L37.0001 23.253C37.1336 23.0938 37.3081 23.0142 37.5235 23.0142Z" fill="white"/>
<path d="M38.4688 24.3164V23.0431H38.763V23.3301C38.853 23.113 39.0033 23.0094 39.2139 23.019V23.3277H39.1971C39.0636 23.3277 38.9579 23.3707 38.88 23.4567C38.8019 23.5427 38.763 23.6678 38.763 23.8317V24.3164H38.4688Z" fill="white"/>
<path d="M39.8603 23.9753C39.9326 24.0516 40.0203 24.0898 40.1232 24.0898C40.226 24.0898 40.3124 24.0524 40.3824 23.9776C40.4523 23.9029 40.4873 23.8044 40.4873 23.6822V23.6773C40.4873 23.5569 40.452 23.4588 40.3812 23.3832C40.3104 23.3076 40.2244 23.2699 40.1232 23.2699C40.0203 23.2699 39.9326 23.3081 39.8603 23.3844C39.788 23.4608 39.7518 23.5585 39.7518 23.6773V23.6822C39.7518 23.8012 39.788 23.8989 39.8603 23.9753ZM40.1931 24.343C40.0162 24.343 39.8716 24.2682 39.759 24.1187V24.3165H39.4648V22.5561H39.759V23.2553C39.8716 23.0962 40.0162 23.0167 40.1931 23.0167C40.3522 23.0167 40.4905 23.0761 40.6079 23.1951C40.7252 23.3141 40.784 23.4748 40.784 23.6773V23.6822C40.784 23.8848 40.7256 24.0456 40.6091 24.1645C40.4925 24.2836 40.3539 24.343 40.1931 24.343Z" fill="white"/>
<path d="M41.5338 24.1309C41.6319 24.1309 41.7131 24.1055 41.7774 24.0549C41.8417 24.0042 41.8739 23.9388 41.8739 23.8583V23.7715C41.787 23.7377 41.6906 23.7209 41.5845 23.7209C41.4896 23.7209 41.4161 23.7393 41.3638 23.7763C41.3116 23.8133 41.2855 23.8656 41.2855 23.933V23.9379C41.2855 23.9974 41.3088 24.0445 41.3554 24.079C41.4021 24.1136 41.4615 24.1309 41.5338 24.1309ZM41.4519 24.343C41.3249 24.343 41.2175 24.3085 41.1299 24.2393C41.0422 24.1702 40.9985 24.0737 40.9985 23.9499V23.9452C40.9985 23.8101 41.0463 23.7081 41.142 23.6389C41.2376 23.5697 41.3658 23.5352 41.5266 23.5352C41.644 23.5352 41.7581 23.5529 41.869 23.5882V23.5569C41.869 23.3721 41.7637 23.2795 41.5531 23.2795C41.4374 23.2795 41.316 23.3061 41.1889 23.3592L41.1094 23.13C41.2718 23.0609 41.4325 23.0263 41.5917 23.0263C41.7814 23.0263 41.9221 23.0737 42.0137 23.1686C42.1054 23.2602 42.1512 23.3913 42.1512 23.5617V24.3165H41.8666V24.1573C41.7637 24.2812 41.6255 24.343 41.4519 24.343Z" fill="white"/>
<path d="M43.0024 23.9886L43.3352 23.0433H43.6391L43.1327 24.3504C43.0812 24.4822 43.0241 24.575 42.9614 24.6289C42.8988 24.6828 42.816 24.7097 42.7131 24.7097C42.6053 24.7097 42.5048 24.6832 42.4116 24.6301L42.5105 24.4155C42.5716 24.4476 42.6286 24.4636 42.6817 24.4636C42.7251 24.4636 42.7601 24.4528 42.7866 24.4312C42.8132 24.4095 42.8384 24.372 42.8626 24.319L42.332 23.0433H42.6456L43.0024 23.9886Z" fill="white"/>
<path d="M44.4064 24.3455C44.2182 24.3455 44.0615 24.2815 43.9361 24.1538C43.8107 24.0259 43.748 23.8704 43.748 23.6871V23.6823C43.748 23.499 43.8111 23.3423 43.9373 23.212C44.0635 23.0818 44.2214 23.0167 44.4112 23.0167C44.6121 23.0167 44.7817 23.0899 44.92 23.2362L44.7368 23.4315C44.6354 23.3254 44.5261 23.2723 44.4088 23.2723C44.3043 23.2723 44.2166 23.3117 44.1459 23.3904C44.0751 23.4693 44.0398 23.5649 44.0398 23.6774V23.6823C44.0398 23.7965 44.0756 23.8929 44.1472 23.9716C44.2186 24.0504 44.3099 24.0899 44.4208 24.0899C44.5366 24.0899 44.6467 24.0375 44.7512 23.9331L44.9272 24.1067C44.858 24.1839 44.7833 24.243 44.703 24.2839C44.6225 24.3249 44.5237 24.3455 44.4064 24.3455Z" fill="white"/>
<path d="M45.6432 24.1309C45.7413 24.1309 45.8225 24.1055 45.8868 24.0549C45.9511 24.0042 45.9833 23.9388 45.9833 23.8583V23.7715C45.8964 23.7377 45.8 23.7209 45.6939 23.7209C45.599 23.7209 45.5254 23.7393 45.4732 23.7763C45.421 23.8133 45.3949 23.8656 45.3949 23.933V23.9379C45.3949 23.9974 45.4182 24.0445 45.4648 24.079C45.5114 24.1136 45.5709 24.1309 45.6432 24.1309ZM45.5613 24.343C45.4342 24.343 45.3269 24.3085 45.2393 24.2393C45.1516 24.1702 45.1079 24.0737 45.1079 23.9499V23.9452C45.1079 23.8101 45.1557 23.7081 45.2514 23.6389C45.347 23.5697 45.4752 23.5352 45.636 23.5352C45.7534 23.5352 45.8675 23.5529 45.9784 23.5882V23.5569C45.9784 23.3721 45.8731 23.2795 45.6625 23.2795C45.5468 23.2795 45.4254 23.3061 45.2983 23.3592L45.2188 23.13C45.3812 23.0609 45.5419 23.0263 45.7011 23.0263C45.8908 23.0263 46.0315 23.0737 46.1231 23.1686C46.2148 23.2602 46.2606 23.3913 46.2606 23.5617V24.3165H45.976V24.1573C45.8731 24.2812 45.7349 24.343 45.5613 24.343Z" fill="white"/>
<path d="M46.6079 24.3164V23.0431H46.9022V23.2384C47.0082 23.0906 47.1409 23.0166 47.3 23.0166C47.443 23.0166 47.5545 23.0604 47.634 23.1481C47.7136 23.2357 47.7534 23.3542 47.7534 23.5038V24.3164H47.4616V23.593C47.4616 23.4933 47.4378 23.4166 47.3905 23.3626C47.343 23.3088 47.2759 23.2818 47.1891 23.2818C47.1023 23.2818 47.0328 23.31 46.9805 23.3662C46.9282 23.4226 46.9022 23.4998 46.9022 23.5978V24.3164H46.6079Z" fill="white"/>
<path d="M50.2617 23.8223V23.8175C50.2617 23.6664 50.1459 23.5907 49.9144 23.5907H49.4441V24.0539H49.9361C50.039 24.0539 50.119 24.0341 50.1761 23.9947C50.2331 23.9553 50.2617 23.8979 50.2617 23.8223ZM50.1676 23.1108V23.1061C50.1676 23.0385 50.1423 22.9859 50.0916 22.9481C50.041 22.9104 49.9675 22.8914 49.871 22.8914H49.4441V23.34H49.8493C49.949 23.34 50.0269 23.3207 50.0832 23.2821C50.1395 23.2435 50.1676 23.1865 50.1676 23.1108ZM49.1523 24.3167V22.6286H49.9096C50.104 22.6286 50.2511 22.6784 50.3509 22.7781C50.4265 22.8537 50.4642 22.9469 50.4642 23.0578V23.0626C50.4642 23.2299 50.3838 23.3553 50.2231 23.4388C50.3324 23.4774 50.4156 23.5281 50.4727 23.5907C50.5298 23.6535 50.5583 23.7395 50.5583 23.8488V23.8537C50.5583 24.0015 50.502 24.1157 50.3895 24.1961C50.2769 24.2765 50.125 24.3167 49.9336 24.3167H49.1523Z" fill="white"/>
<path d="M51.0789 23.5906H51.7325C51.7228 23.4925 51.6899 23.4122 51.6336 23.3494C51.5772 23.2867 51.5025 23.2554 51.4093 23.2554C51.3193 23.2554 51.2449 23.2859 51.1863 23.347C51.1276 23.4082 51.0918 23.4893 51.0789 23.5906ZM51.4431 24.3455C51.2566 24.3455 51.101 24.2839 50.9764 24.1609C50.8518 24.0379 50.7896 23.8791 50.7896 23.6847V23.6798C50.7896 23.4933 50.8482 23.3362 50.9656 23.2084C51.0829 23.0806 51.2316 23.0167 51.4117 23.0167C51.6047 23.0167 51.7545 23.0822 51.8615 23.2131C51.9684 23.3443 52.0219 23.507 52.0219 23.7015C52.0219 23.7176 52.0203 23.745 52.0171 23.7835H51.0813C51.0974 23.8864 51.1384 23.9659 51.2043 24.0223C51.2703 24.0786 51.3514 24.1067 51.4479 24.1067C51.5717 24.1067 51.6867 24.056 51.7928 23.9547L51.964 24.1067C51.8289 24.2658 51.6553 24.3455 51.4431 24.3455Z" fill="white"/>
<path d="M52.8052 23.9886L53.138 23.0433H53.4419L52.9355 24.3504C52.884 24.4822 52.8269 24.575 52.7642 24.6289C52.7015 24.6828 52.6187 24.7097 52.5159 24.7097C52.4081 24.7097 52.3076 24.6832 52.2144 24.6301L52.3133 24.4155C52.3744 24.4476 52.4314 24.4636 52.4844 24.4636C52.5279 24.4636 52.5629 24.4528 52.5894 24.4312C52.616 24.4095 52.6412 24.372 52.6653 24.319L52.1348 23.0433H52.4483L52.8052 23.9886Z" fill="white"/>
<path d="M53.6904 24.3164V23.0431H53.9847V23.2384C54.0907 23.0906 54.2234 23.0166 54.3825 23.0166C54.5256 23.0166 54.637 23.0604 54.7165 23.1481C54.7961 23.2357 54.8359 23.3542 54.8359 23.5038V24.3164H54.5441V23.593C54.5441 23.4933 54.5203 23.4166 54.473 23.3626C54.4255 23.3088 54.3584 23.2818 54.2716 23.2818C54.1848 23.2818 54.1153 23.31 54.063 23.3662C54.0107 23.4226 53.9847 23.4998 53.9847 23.5978V24.3164H53.6904Z" fill="white"/>
<path d="M56.061 23.769H55.4051C55.4147 23.8672 55.4476 23.9475 55.504 24.0102C55.5602 24.0729 55.635 24.1042 55.7282 24.1042C55.8166 24.1042 55.8906 24.0737 55.95 24.0126C56.0095 23.9515 56.0465 23.8704 56.061 23.769ZM55.6968 23.0142C55.8833 23.0142 56.0389 23.0757 56.1635 23.1987C56.288 23.3217 56.3504 23.4797 56.3504 23.6726V23.6773C56.3504 23.864 56.2917 24.0214 56.1744 24.1501C56.0569 24.2787 55.9075 24.343 55.7258 24.343C55.5328 24.343 55.3829 24.2775 55.276 24.1465C55.1692 24.0154 55.1157 23.8527 55.1157 23.6581C55.1157 23.6421 55.1172 23.6147 55.1205 23.5761H56.0561C56.04 23.4733 55.9992 23.3937 55.9332 23.3373C55.8672 23.2811 55.7868 23.253 55.692 23.253C55.5666 23.253 55.4508 23.3037 55.3448 23.4049L55.1736 23.253C55.307 23.0938 55.4814 23.0142 55.6968 23.0142Z" fill="white"/>
<path d="M56.6592 22.5562H56.9534V24.3167H56.6592V22.5562Z" fill="white"/>
<path d="M57.5588 23.0431L57.8506 23.47L58.1472 23.0431H58.4583L58.0098 23.6653L58.4776 24.3164H58.1593L57.8458 23.863L57.5347 24.3164H57.2236L57.689 23.6678L57.2405 23.0431H57.5588Z" fill="white"/>
<path d="M59.1451 24.1309C59.2432 24.1309 59.3244 24.1055 59.3887 24.0549C59.4531 24.0042 59.4852 23.9388 59.4852 23.8583V23.7715C59.3983 23.7377 59.3019 23.7209 59.1959 23.7209C59.1009 23.7209 59.0274 23.7393 58.9751 23.7763C58.9229 23.8133 58.8968 23.8656 58.8968 23.933V23.9379C58.8968 23.9974 58.9201 24.0445 58.9667 24.079C59.0134 24.1136 59.0728 24.1309 59.1451 24.1309ZM59.0632 24.343C58.9362 24.343 58.8288 24.3085 58.7412 24.2393C58.6535 24.1702 58.6099 24.0737 58.6099 23.9499V23.9452C58.6099 23.8101 58.6576 23.7081 58.7533 23.6389C58.8489 23.5697 58.9771 23.5352 59.1379 23.5352C59.2553 23.5352 59.3695 23.5529 59.4803 23.5882V23.5569C59.4803 23.3721 59.3751 23.2795 59.1644 23.2795C59.0487 23.2795 58.9273 23.3061 58.8003 23.3592L58.7207 23.13C58.8831 23.0609 59.0439 23.0263 59.2031 23.0263C59.3927 23.0263 59.5335 23.0737 59.6251 23.1686C59.7167 23.2602 59.7625 23.3913 59.7625 23.5617V24.3165H59.4779V24.1573C59.3751 24.2812 59.2368 24.343 59.0632 24.343Z" fill="white"/>
<path d="M60.127 22.5562H60.4212V24.3167H60.127V22.5562Z" fill="white"/>
<path d="M61.398 24.0899C61.4994 24.0899 61.5862 24.0517 61.6585 23.9754C61.7308 23.899 61.767 23.8014 61.767 23.6823V23.6775C61.767 23.5586 61.7308 23.461 61.6585 23.3846C61.5862 23.3082 61.4994 23.27 61.398 23.27C61.2951 23.27 61.2083 23.3074 61.1376 23.3821C61.0668 23.4569 61.0315 23.5554 61.0315 23.6775V23.6823C61.0315 23.8029 61.0668 23.901 61.1376 23.9766C61.2083 24.0522 61.2951 24.0899 61.398 24.0899ZM61.7623 24.7024V24.1044C61.6497 24.2635 61.505 24.3431 61.3281 24.3431C61.169 24.3431 61.0307 24.2837 60.9133 24.1647C60.796 24.0457 60.7373 23.8849 60.7373 23.6823V23.6775C60.7373 23.475 60.7955 23.3142 60.9122 23.1952C61.0287 23.0762 61.1673 23.0168 61.3281 23.0168C61.5066 23.0168 61.6513 23.0915 61.7623 23.241V23.0433H62.054V24.7024H61.7623Z" fill="white"/>
<path d="M64.5278 23.8223V23.8175C64.5278 23.6664 64.4121 23.5907 64.1805 23.5907H63.7102V24.0539H64.2022C64.3051 24.0539 64.3851 24.0341 64.4422 23.9947C64.4993 23.9553 64.5278 23.8979 64.5278 23.8223ZM64.4337 23.1108V23.1061C64.4337 23.0385 64.4085 22.9859 64.3577 22.9481C64.3071 22.9104 64.2336 22.8914 64.1371 22.8914H63.7102V23.34H64.1154C64.2151 23.34 64.293 23.3207 64.3493 23.2821C64.4056 23.2435 64.4337 23.1865 64.4337 23.1108ZM63.4185 24.3167V22.6286H64.1757C64.3701 22.6286 64.5173 22.6784 64.617 22.7781C64.6926 22.8537 64.7303 22.9469 64.7303 23.0578V23.0626C64.7303 23.2299 64.6499 23.3553 64.4893 23.4388C64.5985 23.4774 64.6817 23.5281 64.7388 23.5907C64.7959 23.6535 64.8244 23.7395 64.8244 23.8488V23.8537C64.8244 24.0015 64.7681 24.1157 64.6557 24.1961C64.543 24.2765 64.3911 24.3167 64.1997 24.3167H63.4185Z" fill="white"/>
<path d="M65.5744 24.1309C65.6725 24.1309 65.7536 24.1055 65.8179 24.0549C65.8823 24.0042 65.9144 23.9388 65.9144 23.8583V23.7715C65.8276 23.7377 65.7311 23.7209 65.6251 23.7209C65.5302 23.7209 65.4566 23.7393 65.4044 23.7763C65.3522 23.8133 65.326 23.8656 65.326 23.933V23.9379C65.326 23.9974 65.3493 24.0445 65.396 24.079C65.4426 24.1136 65.5021 24.1309 65.5744 24.1309ZM65.4924 24.343C65.3654 24.343 65.2581 24.3085 65.1704 24.2393C65.0828 24.1702 65.0391 24.0737 65.0391 23.9499V23.9452C65.0391 23.8101 65.0868 23.7081 65.1826 23.6389C65.2782 23.5697 65.4063 23.5352 65.5671 23.5352C65.6845 23.5352 65.7987 23.5529 65.9095 23.5882V23.5569C65.9095 23.3721 65.8043 23.2795 65.5937 23.2795C65.4779 23.2795 65.3565 23.3061 65.2295 23.3592L65.1499 23.13C65.3123 23.0609 65.4731 23.0263 65.6323 23.0263C65.822 23.0263 65.9627 23.0737 66.0543 23.1686C66.146 23.2602 66.1918 23.3913 66.1918 23.5617V24.3165H65.9072V24.1573C65.8043 24.2812 65.6661 24.343 65.4924 24.343Z" fill="white"/>
<path d="M66.5391 24.3164V23.0431H66.8333V23.2384C66.9395 23.0906 67.072 23.0166 67.2312 23.0166C67.3743 23.0166 67.4856 23.0604 67.5652 23.1481C67.6447 23.2357 67.6846 23.3542 67.6846 23.5038V24.3164H67.3928V23.593C67.3928 23.4933 67.3691 23.4166 67.3216 23.3626C67.2742 23.3088 67.2071 23.2818 67.1203 23.2818C67.0335 23.2818 66.9639 23.31 66.9117 23.3662C66.8595 23.4226 66.8333 23.4998 66.8333 23.5978V24.3164H66.5391Z" fill="white"/>
<path d="M68.0342 24.3164V22.556H68.3284V23.6074L68.8565 23.0431H69.2111L68.7047 23.5616L69.2279 24.3164H68.8855L68.5092 23.7642L68.3284 23.9522V24.3164H68.0342Z" fill="white"/>
<path d="M69.4546 23.0434H69.7488V24.3167H69.4546V23.0434Z" fill="white"/>
</svg>
