<svg width="32" height="32" viewBox="0 0 32 32" fill="none" xmlns="http://www.w3.org/2000/svg">
<path d="M6.0075 16C4.21214 13.0968 3.25118 9.66168 3.89702 6.18136C4.11734 4.99424 5.0699 4.07199 6.26262 3.88415C7.32974 3.71599 8.10111 3.63175 9.61263 3.75735C9.06791 4.66167 8.74567 5.5636 8.40679 6.44016C7.65182 6.41272 6.8827 6.56376 6.6391 6.63888C6.02566 8.90632 6.81726 12.7883 9.20879 16H6.0075Z" fill="white"/>
<path d="M8.93408 8.93407C9.71744 5.61167 11.467 2.50311 14.3846 0.498869C15.3798 -0.184812 16.7055 -0.163291 17.6818 0.547189C18.5552 1.18287 19.1602 1.66879 20.1402 2.82639C19.1156 3.08063 18.2499 3.49055 17.3905 3.87079C16.876 3.31751 16.2254 2.88047 16 2.76135C13.963 3.93087 11.7777 7.23575 11.1978 11.1978L8.93408 8.93407Z" fill="white"/>
<path d="M15.9998 6.00743C18.903 4.21207 22.3381 3.25103 25.8184 3.89687C27.0056 4.11719 27.9278 5.06975 28.1157 6.26247C28.2838 7.32959 28.368 8.10095 28.2425 9.61255C27.3382 9.06783 26.4362 8.74559 25.5597 8.40663C25.587 7.65175 25.4361 6.88263 25.3609 6.63903C23.0934 6.02559 19.2114 6.81719 15.9998 9.20871V6.00743Z" fill="white"/>
<path d="M23.0657 8.93397C26.3881 9.71733 29.4966 11.4668 31.5008 14.3845C32.1846 15.3797 32.163 16.7053 31.4526 17.6817C30.8169 18.5551 30.331 19.1601 29.1734 20.1401C28.919 19.1155 28.5092 18.2498 28.129 17.3904C28.6822 16.8759 29.1192 16.2253 29.2384 15.9999C28.0688 13.9628 24.764 11.7776 20.802 11.1977L23.0657 8.93397Z" fill="white"/>
<path d="M25.9926 15.9997C27.7879 18.9029 28.7489 22.3381 28.1031 25.8184C27.8827 27.0056 26.9302 27.9277 25.7375 28.1157C24.6703 28.2837 23.899 28.3681 22.3875 28.2424C22.9321 27.3381 23.2543 26.4362 23.5933 25.5596C24.3483 25.587 25.1174 25.436 25.361 25.3609C25.9743 23.0934 25.1828 19.2114 22.7912 15.9997H25.9926Z" fill="white"/>
<path d="M23.066 23.0658C22.2826 26.3882 20.5331 29.4967 17.6155 31.501C16.6203 32.1847 15.2946 32.1632 14.3183 31.4527C13.4449 30.817 12.8399 30.3311 11.8599 29.1735C12.8845 28.9192 13.7501 28.5094 14.6095 28.1291C15.1241 28.6823 15.7747 29.1194 16.0001 29.2386C18.0371 28.069 20.2224 24.7642 20.8023 20.8021L23.066 23.0658Z" fill="white"/>
<path d="M15.9998 25.9927C13.0965 27.7881 9.66148 28.749 6.18116 28.1033C4.99396 27.8829 4.0718 26.9304 3.88388 25.7377C3.7158 24.6705 3.63148 23.8991 3.75708 22.3876C4.66148 22.9323 5.56332 23.2545 6.43988 23.5934C6.41252 24.3484 6.56356 25.1175 6.63868 25.3611C8.90612 25.9745 12.7881 25.1829 15.9998 22.7913V25.9927Z" fill="white"/>
<path d="M8.93417 23.0659C5.61177 22.2826 2.50329 20.5331 0.498969 17.6154C-0.184712 16.6202 -0.163191 15.2945 0.547369 14.3182C1.18297 13.4448 1.66889 12.8398 2.82657 11.8598C3.08081 12.8844 3.49065 13.7501 3.87089 14.6095C3.31761 15.124 2.88065 15.7746 2.76145 16C3.93097 18.0371 7.23585 20.2223 11.1979 20.8022L8.93417 23.0659Z" fill="white"/>
</svg>
